HIERARCHY
ROOT Hips
{
	OFFSET -3.958830 18.904000 13.208200
	CHANNELS 6 Xposition Yposition Zposition Zrotation Yrotation Xrotation 
	JOINT LHipJoint
	{
		OFFSET 0.000000 0.000000 0.000000
		CHANNELS 3 Zrotation Yrotation Xrotation
		JOINT LeftUpLeg
		{
			OFFSET 1.800000 -1.400000 0.085000
			CHANNELS 3 Zrotation Yrotation Xrotation
			JOINT LeftLeg
			{
				OFFSET 2.215000 -6.000000 0.000000
				CHANNELS 3 Zrotation Yrotation Xrotation
				JOINT LeftFoot
				{
					OFFSET 2.500000 -6.900000 0.000000
					CHANNELS 3 Zrotation Yrotation Xrotation
					JOINT LeftToeBase
					{
						OFFSET 0.200000 -0.500000 1.950000
						CHANNELS 3 Zrotation Yrotation Xrotation
						End Site
						{
							OFFSET 0.000000 0.000000 0.000000
						}
					}
				}
			}
		}
	}
	JOINT RHipJoint
	{
		OFFSET 0.000000 0.000000 0.000000
		CHANNELS 3 Zrotation Yrotation Xrotation
		JOINT RightUpLeg
		{
			OFFSET -1.800000 -1.400000 0.085000
			CHANNELS 3 Zrotation Yrotation Xrotation
			JOINT RightLeg
			{
				OFFSET -2.215000 -6.000000 0.000000
				CHANNELS 3 Zrotation Yrotation Xrotation
				JOINT RightFoot
				{
					OFFSET -2.500000 -6.900000 0.000000
					CHANNELS 3 Zrotation Yrotation Xrotation
					JOINT RightToeBase
					{
						OFFSET -0.200000 -0.500000 1.950000
						CHANNELS 3 Zrotation Yrotation Xrotation
						End Site
						{
							OFFSET 0.000000 0.000000 0.000000
						}
					}
				}
			}
		}
	}
	JOINT LowerBack
	{
		OFFSET 0.000000 0.000000 0.000000
		CHANNELS 3 Zrotation Yrotation Xrotation
		JOINT Spine
		{
			OFFSET -0.087000 1.940000 -0.288900
			CHANNELS 3 Zrotation Yrotation Xrotation
			JOINT Spine1
			{
				OFFSET 0.000000 1.950000 0.060000
				CHANNELS 3 Zrotation Yrotation Xrotation
				JOINT Neck
				{
					OFFSET 0.000000 0.000000 0.000000
					CHANNELS 3 Zrotation Yrotation Xrotation
					JOINT Neck1
					{
						OFFSET 0.000000 1.600000 0.340000
						CHANNELS 3 Zrotation Yrotation Xrotation
						JOINT Head
						{
							OFFSET 0.000000 1.667000 -0.240000
							CHANNELS 3 Zrotation Yrotation Xrotation
							End Site
							{
								OFFSET 0.000000 0.000000 0.000000
							}
						}
					}
				}
				JOINT LeftShoulder
				{
					OFFSET 0.000000 0.000000 0.000000
					CHANNELS 3 Zrotation Yrotation Xrotation
					JOINT LeftArm
					{
						OFFSET 2.700000 1.550000 -0.730000
						CHANNELS 3 Zrotation Yrotation Xrotation
						JOINT LeftForeArm
						{
							OFFSET 5.450000 0.000000 0.000000
							CHANNELS 3 Zrotation Yrotation Xrotation
							JOINT LeftHand
							{
								OFFSET 3.450000 0.000000 0.000000
								CHANNELS 3 Zrotation Yrotation Xrotation
								JOINT LeftHandIndex1
								{
									OFFSET 0.750000 0.000000 0.000000
									CHANNELS 3 Zrotation Yrotation Xrotation
									End Site
									{
										OFFSET 0.000000 0.000000 0.000000
									}
								}
							}
						}
					}
				}
				JOINT RightShoulder
				{
					OFFSET 0.000000 0.000000 0.000000
					CHANNELS 3 Zrotation Yrotation Xrotation
					JOINT RightArm
					{
						OFFSET -2.700000 1.550000 -0.730000
						CHANNELS 3 Zrotation Yrotation Xrotation
						JOINT RightForeArm
						{
							OFFSET -5.450000 0.000000 0.000000
							CHANNELS 3 Zrotation Yrotation Xrotation
							JOINT RightHand
							{
								OFFSET -3.450000 0.000000 0.000000
								CHANNELS 3 Zrotation Yrotation Xrotation
								JOINT RightHandIndex1
								{
									OFFSET -0.750000 0.000000 0.000000
									CHANNELS 3 Zrotation Yrotation Xrotation
									End Site
									{
										OFFSET 0.000000 0.000000 0.000000
									}
								}
							}
						}
					}
				}
			}
		}
	}
}
MOTION
Frames: 7
Frame Time: 0.016667
-0.698440 17.642350 -3.587720 -28.814877 42.387839 -10.098952 -15.345562 12.076792 2.740174 14.134068 -3.579879 -28.502449 -5.249331 6.107525 18.792740 -0.066154 3.577068 3.075891 0.207630 -0.189570 0.508390 18.519675 -7.663836 5.973579 -6.475762 11.120177 -65.205775 -19.166802 -1.774590 2.918016 -0.213988 -0.936119 3.929032 -0.480930 -0.414430 0.080030 -4.474573 -2.809436 -9.520156 27.461809 -9.932208 23.289370 -3.541332 -0.185906 -3.773179 1.502392 0.366022 -18.781596 -8.745596 -4.475884 64.898640 9.888240 -12.731150 -11.548790 0.140798 -23.767718 7.073428 28.514559 -9.321612 -3.822160 5.974639 -5.157182 0.000005 -3.208457 2.345777 0.893220 -0.541680 0.504520 -0.050060 -3.353386 23.527535 11.051164 -24.757001 6.447203 -6.074542 -14.834081 4.660477 0.657898 2.998644 -0.605319 0.068730 -0.064970 -0.183650 -0.179440 
-0.715500 17.625810 -3.605040 -29.606441 41.233688 -9.470329 -15.330551 11.759845 2.726328 15.160902 -3.491148 -29.421849 -5.786490 6.385587 18.780927 -0.003943 3.645026 3.040171 0.196460 -0.200660 0.500780 18.630872 -7.242215 6.464506 -8.658290 12.104301 -70.730817 -17.118648 -1.542739 10.137387 -0.221592 -0.904061 3.927455 -0.516290 -0.442390 0.095250 -4.522033 -2.773478 -9.675564 28.692429 -10.008103 23.178120 -3.938977 0.415384 -4.293980 1.594151 -0.079339 -18.819650 -9.787409 -4.307611 64.011488 10.499200 -12.851560 -12.500710 0.854045 -23.628615 7.081653 28.711024 -9.646624 -4.130642 6.440886 -4.239738 -0.069242 -3.205243 2.355160 0.896160 -0.563420 0.528220 -0.047750 -4.131030 23.975918 10.901638 -25.365111 6.940389 -6.509469 -16.206264 5.355282 0.621032 3.024189 -0.629293 0.097520 -0.106010 -0.200130 -0.170050 
-0.804360 17.571290 -3.654820 -31.769424 38.879233 -11.148154 -15.325221 11.192495 2.430434 17.752556 -2.948915 -28.184858 -6.792849 6.799213 17.631500 0.023779 3.836006 2.971288 0.179770 -0.194080 0.466750 18.835903 -6.365930 7.604870 -18.360127 12.173104 -82.024740 -5.541439 -4.035461 29.466706 -0.379169 -2.526482 3.340087 -0.512930 -0.417040 0.120470 -4.615124 -2.596798 -9.967977 31.038082 -11.105122 25.859922 -5.513493 0.993647 -2.858625 1.820726 0.078525 -18.502125 -8.645024 -5.453637 60.211831 9.563420 -11.703670 -15.421450 4.281538 -23.238272 6.886451 31.228240 -9.309301 -5.338607 10.395811 -0.638169 -0.455345 -3.398796 2.295924 0.863500 -0.534910 0.511200 -0.047940 -8.104659 23.919628 10.208984 -26.087508 7.612928 -7.645654 -21.136677 6.357790 0.173347 3.037563 -0.750762 0.106820 -0.114740 -0.184130 -0.154810 
-0.919810 17.506410 -3.682190 -33.528033 38.683618 -14.544330 -15.385917 10.917132 2.062231 19.490765 -2.803418 -25.720361 -6.863000 6.818041 16.612274 0.021896 3.904024 2.962834 0.245080 -0.105800 0.484920 18.933218 -5.620965 8.446635 -32.280031 6.909626 -89.979750 14.958032 -11.533738 36.654617 -0.817666 -5.616532 2.281450 -0.430890 -0.417870 0.107620 -4.572197 -2.719269 -10.233135 31.471939 -12.471234 29.838131 -6.045716 0.805366 -1.304467 2.018759 -0.213446 -18.238208 -8.865298 -5.864700 57.102365 8.572250 -11.167070 -16.629020 8.092231 -22.963979 6.089333 33.218783 -9.388923 -7.086712 16.423261 1.354126 -0.608209 -3.527138 2.371736 0.824350 -0.525820 0.492540 -0.011390 -12.277603 24.202812 9.784297 -27.674304 6.386087 -8.771520 -25.050758 7.652200 -0.422853 3.071800 -0.931016 0.103620 -0.106360 -0.229360 -0.146900 
-1.062680 17.444360 -3.679130 -35.321498 40.605550 -20.786863 -15.478833 11.003238 1.846089 21.289650 -2.782255 -22.581217 -7.121731 7.146261 17.102131 -0.011846 4.374703 2.856077 0.244340 -0.057110 0.392600 18.867179 -5.471541 8.498582 -34.460692 5.068350 -90.489656 22.585426 -12.122942 33.175917 -0.831436 -6.068358 2.152639 -0.310240 -0.215330 0.107140 -4.528289 -2.721705 -10.212887 30.093336 -14.898199 35.742170 -6.299619 -1.023959 0.820187 1.554519 -0.285407 -16.316705 -7.217422 -7.186657 48.359906 7.899540 -11.339430 -15.276440 11.347986 -23.359691 4.557947 36.865284 -9.621787 -9.850280 22.352044 4.202886 -0.866359 -3.902921 2.427580 0.664740 -0.366940 0.341650 0.039540 -15.040243 24.043277 8.659241 -29.635327 5.818639 -10.649768 -31.161337 8.958945 -1.743549 3.041275 -1.194308 0.050740 -0.005990 -0.179040 -0.087540 
-1.187150 17.403220 -3.644390 -36.218266 42.447532 -25.766142 -15.565907 11.047440 1.639491 22.501641 -2.432668 -20.253726 -7.210271 7.643295 18.096906 -0.039168 4.841013 2.742092 0.237440 -0.053630 0.303130 18.816716 -5.342465 8.550480 -34.568718 6.127322 -91.788154 27.073864 -15.978794 39.844136 -1.133841 -7.863164 1.602447 -0.229740 -0.048240 0.116650 -4.493188 -2.779573 -10.239927 27.990327 -15.511188 40.506602 -5.607808 -2.083747 2.290599 0.776669 -0.159973 -15.042304 -5.961517 -7.928439 43.518427 8.918270 -12.476750 -13.309860 14.095307 -25.097633 3.259232 38.574070 -11.103760 -13.028519 30.789605 5.355928 -1.147927 -4.184458 2.598801 0.572030 -0.247270 0.221090 0.090580 -16.410785 25.009605 8.110062 -30.241858 5.043905 -12.916192 -40.122228 12.608532 -3.968115 2.991227 -1.452010 -0.004860 0.063020 -0.132820 -0.047860 
-1.296100 17.376450 -3.596930 -37.591007 44.264038 -30.009820 -15.642135 10.957623 1.513805 24.045609 -2.139442 -19.075849 -7.141072 8.172399 19.497451 -0.116663 5.369996 2.570534 0.334660 0.128860 0.188700 18.777212 -5.358609 8.391076 -32.849378 8.276629 -91.806605 30.675219 -19.746280 45.346392 -1.433332 -9.526467 1.085275 0.002950 0.171260 0.172700 -4.526216 -2.538027 -10.206269 26.392061 -15.034860 42.550931 -4.314279 -2.702745 5.959186 0.064583 0.710236 -12.297588 -2.391662 -8.915226 35.326057 9.170870 -12.729450 -12.046150 16.302948 -25.853702 0.973715 38.881919 -15.766233 -16.533171 43.578860 3.806950 -2.437930 -4.405281 3.024687 0.362880 -0.054300 0.057220 0.183510 -17.105859 24.114943 7.262280 -29.652014 3.114373 -13.927024 -50.385768 18.233970 -7.949956 2.822155 -1.802054 -0.017050 0.128120 -0.094020 0.040490 
